<?xml version="1.0" encoding="UTF-8" standalone="no"?>
<svg width="648px" height="250px" viewBox="0 0 648 250" version="1.1" xmlns="http://www.w3.org/2000/svg" xmlns:xlink="http://www.w3.org/1999/xlink" xmlns:sketch="http://www.bohemiancoding.com/sketch/ns">
    <!-- Generator: Sketch 3.2 (9961) - http://www.bohemiancoding.com/sketch -->
    <title>Logo DarkBlue + BitShares Blue - 2 color</title>
    <desc>Created with Sketch.</desc>
    <defs>
        <linearGradient x1="1083.70039%" y1="213.184466%" x2="-11223.831%" y2="-1775.39089%" id="linearGradient-1">
            <stop stop-color="#004877" offset="0%"></stop>
            <stop stop-color="#009FE3" offset="100%"></stop>
        </linearGradient>
        <linearGradient x1="1083.70039%" y1="213.184466%" x2="-11223.831%" y2="-1775.39089%" id="linearGradient-2">
            <stop stop-color="#189FCE" offset="0%"></stop>
            <stop stop-color="#009FE3" offset="100%"></stop>
        </linearGradient>
    </defs>
    <g id="Logo-&amp;-Variants" stroke="none" stroke-width="1" fill="none" fill-rule="evenodd" sketch:type="MSPage">
        <g id="Logo-DarkBlue-+-BitShares-Blue---2-color" sketch:type="MSArtboardGroup">
            <g id="BTS-Logo-DarkBlue-+-BitShares-Blue-" sketch:type="MSLayerGroup" transform="translate(46.000000, 44.000000)">
                <g id="Imported-Layers"></g>
            </g>
            <path d="M594.413793,126.87395 L592,126.87395 L592,126 L598,126 L598,126.87395 L595.448276,126.87395 L595.448276,134 L594.413793,134 L594.413793,126.87395 L594.413793,126.87395 Z" id="Shape" fill="url(#linearGradient-1)" sketch:type="MSShapeGroup"></path>
            <path d="M606.304348,130.561983 C606.165217,129.438017 606.165217,128.115702 606.165217,127.256198 L606.165217,127.256198 C605.956522,128.115702 605.469565,129.173554 605.121739,130.231405 L603.730435,134 L602.895652,134 L601.643478,130.231405 C601.295652,129.107438 600.947826,128.115702 600.73913,127.123967 L600.73913,127.123967 C600.73913,128.115702 600.6,129.371901 600.530435,130.561983 L600.321739,133.867769 L599,133.867769 L599.556522,126 L600.808696,126 L602.2,129.768595 C602.547826,130.760331 602.756522,131.553719 603.034783,132.413223 L603.034783,132.413223 C603.243478,131.619835 603.521739,130.760331 603.869565,129.768595 L605.26087,126 L606.513043,126 L607,133.867769 L605.956522,133.867769 L606.304348,130.561983 L606.304348,130.561983 Z" id="Shape-2" fill="url(#linearGradient-1)" sketch:type="MSShapeGroup"></path>
            <path id="Shape-3" sketch:type="MSShapeGroup"></path>
            <path d="M256,111.539924 L256,101 L265,108.323194 L265,119 L256,111.539924 Z" id="Shape-4" fill="#00587C" sketch:type="MSShapeGroup"></path>
            <path d="M246.498123,132.462366 C244.132666,129.834409 241.158949,127.74552 237.982478,126.263082 C234.670839,124.780645 231.088861,123.972043 227.101377,123.972043 C221.289111,123.972043 216.085106,125.521864 211.7597,128.688889 C209.123905,130.508244 206.893617,132.866667 205.204005,135.562007 L205.204005,89 L200,89 L200,182.393548 L205.136421,182.393548 L205.136421,171.410036 C206.961202,174.105376 209.123905,176.396416 211.692115,178.283154 C216.085106,181.450179 221.221527,183 227.033792,183 C230.886108,183 234.603254,182.191398 237.914894,180.708961 C241.226533,179.226523 244.065081,177.205018 246.430538,174.577061 C248.795995,171.949104 250.755945,168.782079 251.972466,165.278136 C253.188986,161.774194 254,157.798566 254,153.486022 C254,149.308244 253.324155,145.332616 251.972466,141.693907 C250.823529,138.324731 248.931164,135.157706 246.498123,132.462366 L246.498123,132.462366 Z M248.998748,153.688172 C248.998748,157.326882 248.458073,160.56129 247.444305,163.660932 C246.430538,166.625806 244.808511,169.18638 243.051314,171.207885 C241.091364,173.364158 238.725907,174.913978 236.157697,176.059498 C233.454318,177.205018 230.480601,177.878853 227.168961,177.878853 C223.857322,177.878853 220.951189,177.339785 218.180225,176.059498 C215.476846,174.913978 213.178974,173.229391 211.286608,171.207885 C209.326658,169.051613 207.907384,166.558423 206.758448,163.660932 C205.744681,160.696057 205.204005,157.326882 205.204005,153.688172 C205.204005,150.049462 205.744681,146.815054 206.758448,143.715412 C207.772215,140.750538 209.394243,138.189964 211.286608,136.033692 C213.246558,133.877419 215.612015,132.192832 218.180225,131.047312 C220.883605,129.834409 223.857322,129.227957 227.033792,129.227957 C230.210263,129.227957 233.251564,129.767025 235.887359,131.047312 C238.590738,132.260215 240.888611,133.877419 242.780976,136.033692 C244.740926,138.189964 246.1602,140.750538 247.309136,143.715412 C248.458073,146.815054 248.998748,150.049462 248.998748,153.688172 L248.998748,153.688172 Z" id="Shape-5" fill="url(#linearGradient-2)" sketch:type="MSShapeGroup"></path>
            <rect id="Rectangle-path-2" fill="url(#linearGradient-2)" sketch:type="MSShapeGroup" x="261" y="125" width="5" height="59"></rect>
            <path d="M297.694761,176.964441 C296.191344,178.317433 294.482916,178.993929 292.432802,178.993929 C290.382688,178.993929 288.67426,178.317433 287.375854,176.829141 C286.145786,175.34085 285.32574,173.446661 285.32574,171.011275 L285.32574,130.624458 L300.56492,130.624458 L300.56492,125.415438 L285.32574,125.415438 L285.32574,106 L280.132118,106 L280.132118,125.415438 L272,125.415438 L272,130.556808 L280.132118,130.556808 L280.132118,170.943625 C280.132118,174.664354 281.29385,177.843886 283.548975,180.279271 C285.872437,182.782307 288.810934,184 292.364465,184 C294.072893,184 295.712984,183.797051 297.079727,183.120555 C298.446469,182.579358 299.744875,181.902862 300.838269,180.820468 L302,179.941023 L298.993166,175.543799 L297.694761,176.964441 L297.694761,176.964441 Z" id="Shape-6" fill="url(#linearGradient-2)" sketch:type="MSShapeGroup"></path>
            <path d="M340.968491,156.722603 C339.404643,155.510274 337.568823,154.567352 335.597015,153.893836 C333.761194,153.22032 331.721393,152.681507 329.885572,152.075342 L326.349917,151.065068 C324.99005,150.728311 323.494196,150.256849 321.998342,149.85274 C320.774461,149.381279 319.3466,148.707763 318.258706,148.034247 C317.238806,147.226027 316.286899,146.215753 315.606965,145.003425 C314.927032,143.791096 314.587065,142.039954 314.587065,140.019406 C314.587065,138.335616 314.927032,136.853881 315.742952,135.641553 C316.558872,134.429224 317.578773,133.351598 318.598673,132.610731 C319.822554,131.802511 321.318408,131.128995 322.950249,130.792237 C324.514096,130.320776 326.281924,130.118721 327.845771,130.118721 C330.701493,130.118721 333.353234,130.455479 335.393035,131.263699 C337.568823,132.071918 339.74461,133.082192 341.784411,134.631279 L343.008292,135.506849 L346,131.465753 L344.844113,130.590183 C342.328358,128.569635 339.676617,127.222603 336.888889,126.212329 C334.169154,125.336758 331.041459,125 327.777778,125 C325.60199,125 323.358209,125.202055 321.250415,125.808219 C319.074627,126.347032 317.034826,127.289954 315.334992,128.636986 C313.499171,129.849315 312.003317,131.465753 310.915423,133.351598 C309.827529,135.237443 309.215589,137.6621 309.215589,140.221461 C309.215589,143.252283 309.759536,145.744292 310.915423,147.697489 C312.07131,149.515982 313.295191,151.065068 314.927032,152.344749 C316.490879,153.489726 318.258706,154.365297 320.094527,154.971461 C321.794362,155.510274 323.494196,155.981735 324.854063,156.318493 L328.389718,157.328767 C330.225539,157.800228 331.925373,158.339041 333.557214,158.877854 C335.053068,159.416667 336.412935,160.090183 337.568823,160.898402 C338.588723,161.706621 339.54063,162.716895 340.084577,163.929224 C340.764511,165.141553 340.968491,166.892694 340.968491,168.913242 C340.968491,170.731735 340.628524,172.280822 339.74461,173.425799 C338.92869,174.638128 337.908789,175.715753 336.548922,176.456621 C335.325041,177.26484 333.693201,177.803653 331.993367,178.275114 C330.157546,178.611872 328.457711,178.813927 326.621891,178.813927 C323.290216,178.813927 320.230514,178.140411 317.374793,176.995434 C314.519071,175.850457 311.86733,174.031963 309.623549,171.809361 L308.399668,170.664384 L305,174.638128 L306.0199,175.648402 C308.875622,178.342466 311.935323,180.363014 315.470978,181.844749 C319.006633,183.191781 322.746269,184 326.621891,184 C328.797678,184 331.041459,183.797945 333.217247,183.191781 C335.529022,182.72032 337.636816,181.844749 339.472637,180.699772 C341.308458,179.487443 342.872305,178.005708 344.164179,176.052511 C345.456053,174.099315 346,171.674658 346,168.84589 C346,165.88242 345.524046,163.390411 344.504146,161.504566 C343.824212,159.55137 342.532338,157.934932 340.968491,156.722603 L340.968491,156.722603 Z" id="Shape-7" fill="url(#linearGradient-1)" sketch:type="MSShapeGroup"></path>
            <path d="M391.031546,131.264982 C389.064669,129.296751 386.826498,127.87148 384.113565,126.71769 C381.468454,125.563899 378.619874,125.020939 375.567823,125.020939 C371.362776,125.020939 367.496845,126.174729 364.037855,128.34657 C362.206625,129.568231 360.511041,130.993502 359.154574,132.690253 L359.154574,90 L354,90 L354,184 L359.154574,184 L359.154574,147.01083 C359.154574,144.703249 359.629338,142.463538 360.375394,140.495307 C361.189274,138.459206 362.342271,136.626715 363.766562,135.133574 C365.258675,133.640433 366.954259,132.418773 368.988959,131.604332 C370.955836,130.789892 373.194006,130.382671 375.5,130.382671 C377.805994,130.382671 379.908517,130.857762 381.875394,131.604332 C383.842271,132.418773 385.605678,133.640433 387.029968,135.133574 C388.522082,136.626715 389.675079,138.459206 390.421136,140.495307 C391.235016,142.463538 391.641956,144.703249 391.641956,147.01083 L391.641956,184 L397,184 L397,147.01083 C397,143.956679 396.457413,141.106137 395.304416,138.459206 C394.422713,135.472924 392.862776,133.301083 391.031546,131.264982 L391.031546,131.264982 Z" id="Shape-8" fill="url(#linearGradient-1)" sketch:type="MSShapeGroup"></path>
            <path d="M445.708455,131.812785 C444.03207,129.455479 441.886297,127.434932 438.93586,126.020548 C436.119534,124.808219 432.498542,124 428.274052,124 C426.329446,124 423.781341,124.202055 420.830904,124.673516 C417.813411,125.144977 414.393586,126.155251 410.83965,127.636986 L409.364431,128.310502 L411.510204,133.159817 L412.851312,132.486301 C416.002915,131.139269 418.953353,130.196347 421.635569,129.792237 C424.451895,129.455479 426.731778,129.253425 428.408163,129.253425 C431.760933,129.253425 434.510204,129.724886 436.521866,130.600457 C438.533528,131.476027 440.142857,132.890411 441.349854,134.439498 C442.556851,136.123288 443.361516,138.278539 443.830904,140.635845 C444.166181,142.656393 444.501458,144.946347 444.635569,147.303653 C438.466472,146.091324 433.034985,145.350457 428.206997,145.350457 C420.696793,145.350457 414.728863,147.034247 410.638484,150.199772 C407.822157,152.489726 406.011662,155.049087 405.206997,157.743151 C404.402332,160.437215 404,162.861872 404,164.949772 C404,166.498858 404.201166,168.317352 404.804665,170.405251 C405.341108,172.425799 406.346939,174.446347 407.755102,176.26484 C409.09621,178.083333 411.107872,179.63242 413.521866,180.979452 C415.868805,182.191781 418.953353,183 422.641399,183 C424.451895,183 426.463557,182.797945 428.609329,182.326484 C430.755102,181.855023 432.900875,181.181507 435.046647,180.305936 C437.19242,179.430365 439.338192,178.150685 441.215743,176.66895 C442.422741,175.658676 443.830904,174.378995 444.90379,173.166667 L444.90379,182.461187 L450,182.461187 L450,150.805936 C450,146.966895 449.798834,143.464612 449.195335,140.299087 C448.390671,137.133562 447.250729,134.237443 445.708455,131.812785 L445.708455,131.812785 Z M444.568513,152.624429 L444.568513,157.608447 C444.568513,159.426941 444.367347,161.312785 444.03207,163.131279 C443.830904,164.949772 443.026239,166.498858 441.886297,168.115297 C440.6793,169.93379 439.204082,171.415525 437.594752,172.627854 C435.918367,173.840183 434.241983,174.917808 432.498542,175.658676 C430.688047,176.466895 429.011662,176.871005 427.201166,177.342466 C425.390671,177.679224 423.848397,177.881279 422.239067,177.881279 C419.556851,177.881279 417.411079,177.409817 415.600583,176.534247 C413.790087,175.658676 412.44898,174.378995 411.577259,173.166667 C410.571429,171.954338 409.900875,170.472603 409.431487,168.990868 C409.09621,167.509132 408.760933,166.1621 408.760933,165.151826 C408.760933,163.468037 408.962099,161.649543 409.632653,159.494292 C410.169096,157.541096 411.443149,155.857306 413.3207,154.308219 C416.606414,151.81621 421.300292,150.603881 427.603499,150.603881 C432.632653,150.603881 438.265306,151.277397 444.568513,152.624429 L444.568513,152.624429 Z" id="Shape-9" fill="url(#linearGradient-1)" sketch:type="MSShapeGroup"></path>
            <path d="M487.325843,128.126728 C485.977528,127.243088 484.359551,126.427419 482.606742,125.815668 C480.786517,125.271889 479.101124,125 477.146067,125 C473.505618,125 470.269663,126.019585 467.168539,127.990783 C465.820225,128.874424 464.47191,130.029954 463.325843,131.389401 L463.325843,125.679724 L458,125.679724 L458,184 L463.325843,184 L463.325843,145.867512 C463.325843,143.556452 463.662921,141.517281 464.337079,139.682028 C465.146067,137.846774 466.022472,136.147465 467.303371,134.788018 C468.516854,133.428571 470,132.273041 471.685393,131.457373 C474.516854,130.233871 478.022472,129.961982 480.853933,130.981567 C482.067416,131.457373 483.348315,132.137097 484.494382,132.81682 L486.179775,133.97235 L488,128.806452 L487.325843,128.126728 L487.325843,128.126728 Z" id="Shape-10" fill="url(#linearGradient-1)" sketch:type="MSShapeGroup"></path>
            <path d="M493.098039,151.954545 L540,151.954545 L539.864052,150.25 C539.660131,146.363636 538.708497,142.681818 537.552941,139.477273 C536.329412,136.272727 534.562092,133.545455 532.386928,131.227273 C530.211765,128.909091 527.628758,127.136364 524.773856,125.840909 C521.918954,124.545455 518.520261,124 514.985621,124 C511.111111,124 507.372549,124.818182 504.04183,126.318182 C500.711111,127.818182 497.856209,129.863636 495.477124,132.590909 C493.166013,135.25 491.262745,138.454545 489.971242,142.204545 C488.747712,145.886364 488,149.840909 488,154.204545 C488,158.568182 488.679739,162.590909 489.971242,166.136364 C491.194771,169.818182 493.166013,173.022727 495.477124,175.613636 C497.788235,178.272727 500.711111,180.386364 504.04183,181.818182 C507.372549,183.25 510.975163,184 514.985621,184 C519.403922,184 523.414379,183.318182 527.084967,181.954545 C530.823529,180.727273 534.018301,178.613636 536.669281,176.090909 L537.824837,175.068182 L534.494118,171.181818 L533.270588,172.204545 C530.959477,174.181818 528.376471,175.75 525.181699,176.977273 C522.122876,178.136364 518.656209,178.681818 514.917647,178.681818 C511.722876,178.681818 508.732026,178.136364 506.14902,176.840909 C503.566013,175.545455 501.254902,173.977273 499.28366,171.931818 C497.448366,169.75 495.884967,167.227273 494.865359,164.295455 C493.845752,161.295455 493.301961,157.886364 493.301961,154.204545 L493.301961,152.363636 C493.098039,152.159091 493.098039,152.090909 493.098039,151.954545 L493.098039,151.954545 Z M493.845752,146.772727 C494.321569,144.454545 495.069281,142.409091 496.156863,140.568182 C497.380392,138.25 498.875817,136.136364 500.711111,134.5 C502.546405,132.795455 504.721569,131.5 507.100654,130.613636 C509.411765,129.727273 512.130719,129.25 514.985621,129.25 C518.180392,129.25 520.899346,129.795455 523.210458,130.818182 C525.521569,131.840909 527.424837,133.204545 529.056209,135.045455 C530.619608,136.886364 531.911111,138.931818 532.794771,141.113636 C533.610458,142.954545 534.018301,144.863636 534.494118,146.840909 L493.913725,146.840909 L493.913725,146.772727 L493.845752,146.772727 Z" id="Shape-11" fill="url(#linearGradient-1)" sketch:type="MSShapeGroup"></path>
            <path d="M583.663273,161.395667 C582.644524,159.444698 581.354109,157.897377 579.792028,156.686431 C578.229948,155.475485 576.3962,154.533637 574.42662,153.860889 C572.592873,153.188141 570.555376,152.649943 568.721629,152.04447 L565.189968,151.035348 C563.831636,150.698974 562.337472,150.22805 560.843308,149.824401 C559.620809,149.353478 558.194562,148.68073 557.107897,148.007982 C556.089148,147.200684 555.138316,146.191562 554.459151,144.980616 C553.779985,143.769669 553.440402,142.020525 553.440402,140.002281 C553.440402,138.32041 553.779985,136.840365 554.594984,135.629418 C555.409983,134.418472 556.428731,133.342075 557.583313,132.602052 C558.805811,131.794755 560.299975,131.122007 561.929973,130.785633 C563.492053,130.314709 565.257884,130.112885 566.819965,130.112885 C569.672461,130.112885 572.321207,130.449259 574.358703,131.256556 C576.532033,132.063854 578.705363,133.072976 580.74286,134.620296 L581.965358,135.494869 L584.953687,131.458381 L583.799106,130.583808 C581.286193,128.565564 578.637447,127.220068 575.852868,126.210946 C573.136205,125.336374 570.012043,125 566.752048,125 C564.578718,125 562.337472,125.201824 560.232058,125.807298 C558.194562,126.345496 556.021232,127.287343 554.323318,128.632839 C552.48957,129.843786 550.995406,131.458381 549.908741,133.342075 C548.754159,135.293044 548.210827,137.647662 548.210827,140.204105 C548.210827,143.231471 548.754159,145.720639 549.908741,147.671608 C551.063323,149.488027 552.285821,151.035348 553.915818,152.313569 C555.477899,153.457241 557.24373,154.331813 559.077477,154.937286 C560.775391,155.475485 562.473305,155.946408 563.831636,156.282782 L567.363298,157.291904 C569.197045,157.762828 570.894959,158.301026 572.524956,158.839225 C574.019121,159.377423 575.377452,160.050171 576.532033,160.857469 C577.550782,161.664766 578.501614,162.673888 579.044946,163.884835 C579.724112,165.095781 579.927862,166.844926 579.927862,168.86317 C579.927862,170.67959 579.588279,172.22691 578.705363,173.370582 C577.890365,174.581528 576.871616,175.657925 575.513285,176.397948 C574.290787,177.205245 572.660789,177.743444 570.962875,178.214367 C566.072883,179.358039 560.843308,178.887115 556.360814,177.003421 C553.508319,175.792474 550.859573,174.04333 548.618326,171.823261 L547.395828,170.67959 L544,174.648803 L545.018748,175.657925 C547.871244,178.348917 550.927489,180.367161 554.459151,181.847206 C557.990812,183.192702 561.726223,184 565.597467,184 C567.770797,184 570.012043,183.798176 572.185373,183.192702 C574.494537,182.721779 576.59995,181.847206 578.433697,180.703535 C580.267444,179.492588 581.829525,178.012543 583.11994,176.061574 C584.342438,174.110604 584.953687,171.688712 584.953687,168.86317 C585.157437,165.835804 584.682021,163.346636 583.663273,161.395667 L583.663273,161.395667 Z" id="Shape-12" fill="url(#linearGradient-1)" sketch:type="MSShapeGroup"></path>
            <path d="M84,145.411679 L45,107 L45,153 L80.6707317,153 C81.28223,150.246715 82.4372822,147.627737 84,145.411679 L84,145.411679 Z" id="Shape-13" fill="#00A9E0" sketch:type="MSShapeGroup"></path>
            <path d="M80.9318182,161 L45,161 C45.8181818,173.587629 50.8636364,184.950515 58.7045455,194 L84,168.756701 C82.5681818,166.375258 81.4090909,163.789691 80.9318182,161 L80.9318182,161 Z" id="Shape-14" fill="#00A9E0" sketch:type="MSShapeGroup"></path>
            <path d="M137,115.704545 C128.086598,107.931818 116.65567,102.886364 104,102 L104,137.795455 C106.857732,138.340909 109.375258,139.363636 111.552577,141 L137,115.704545 L137,115.704545 Z" id="Shape-15" fill="#00A9E0" sketch:type="MSShapeGroup"></path>
            <path d="M117,167.976939 L141.954225,193 C149.380282,184.21174 154.06338,173.209644 155,161 L119.876761,161 C119.207746,163.616352 118.338028,165.897275 117,167.976939 L117,167.976939 Z" id="Shape-16" fill="#00A9E0" sketch:type="MSShapeGroup"></path>
            <path d="M120.204545,153 L156,153 C155.181818,140.412371 150.136364,129.049485 142.295455,120 L117,145.243299 C118.5,147.624742 119.590909,150.278351 120.204545,153 L120.204545,153 Z" id="Shape-17" fill="#00A9E0" sketch:type="MSShapeGroup"></path>
            <path d="M64,199.295455 C72.9134021,207.068182 84.3443299,212.113636 97,213 L97,177.204545 C94.142268,176.659091 91.6247423,175.636364 89.4474227,174 L64,199.295455 L64,199.295455 Z" id="Shape-18" fill="#00A9E0" sketch:type="MSShapeGroup"></path>
            <path d="M105,177.204545 L105,213 C117.65567,212.181818 129.086598,207.068182 138,199.295455 L112.824742,174 C110.375258,175.636364 107.789691,176.659091 105,177.204545 L105,177.204545 Z" id="Shape-19" fill="#00A9E0" sketch:type="MSShapeGroup"></path>
            <path d="M45.1361257,95.2643896 C54.7329843,104.807084 84.8848168,134.924099 89.921466,140 C92.0994764,138.781784 94.3455497,137.698925 97,137.157495 L97,78.886148 L45,33 C45,33.0676787 45.1361257,93.8431373 45.1361257,95.2643896 L45.1361257,95.2643896 Z" id="Shape-20" fill="#00A9E0" sketch:type="MSShapeGroup"></path>
        </g>
    </g>
</svg>